<?xml version="1.0" standalone="no"?><svg xmlns="http://www.w3.org/2000/svg" viewBox="0 0 1440 320"><path fill="#62a4df" fill-opacity="1" d="M0,96L12.6,112C25.3,128,51,160,76,149.3C101.1,139,126,85,152,80C176.8,75,202,117,227,154.7C252.6,192,278,224,303,234.7C328.4,245,354,235,379,240C404.2,245,429,267,455,272C480,277,505,267,531,266.7C555.8,267,581,277,606,245.3C631.6,213,657,139,682,144C707.4,149,733,235,758,250.7C783.2,267,808,213,834,192C858.9,171,884,181,909,181.3C934.7,181,960,171,985,165.3C1010.5,160,1036,160,1061,138.7C1086.3,117,1112,75,1137,85.3C1162.1,96,1187,160,1213,160C1237.9,160,1263,96,1288,80C1313.7,64,1339,96,1364,101.3C1389.5,107,1415,85,1427,74.7L1440,64L1440,320L1427.4,320C1414.7,320,1389,320,1364,320C1338.9,320,1314,320,1288,320C1263.2,320,1238,320,1213,320C1187.4,320,1162,320,1137,320C1111.6,320,1086,320,1061,320C1035.8,320,1011,320,985,320C960,320,935,320,909,320C884.2,320,859,320,834,320C808.4,320,783,320,758,320C732.6,320,707,320,682,320C656.8,320,632,320,606,320C581.1,320,556,320,531,320C505.3,320,480,320,455,320C429.5,320,404,320,379,320C353.7,320,328,320,303,320C277.9,320,253,320,227,320C202.1,320,177,320,152,320C126.3,320,101,320,76,320C50.5,320,25,320,13,320L0,320Z"></path></svg>